<svg width="900" height="200" xmlns="http://www.w3.org/2000/svg">
  <defs>
    <linearGradient id="bg" x1="0%" y1="0%" x2="100%" y2="100%">
      <stop offset="0%" style="stop-color:#0f172a"/>
      <stop offset="100%" style="stop-color:#1e293b"/>
    </linearGradient>
    <linearGradient id="accent" x1="0%" y1="0%" x2="100%" y2="0%">
      <stop offset="0%" style="stop-color:#1E40AF"/>
      <stop offset="100%" style="stop-color:#3b82f6"/>
    </linearGradient>
  </defs>

  <!-- Background -->
  <rect width="900" height="200" fill="url(#bg)" rx="8"/>

  <!-- Accent bar left -->
  <rect x="0" y="0" width="4" height="200" fill="url(#accent)" rx="2"/>

  <!-- Top label -->
  <text x="32" y="38" font-family="monospace" font-size="11" fill="#64748b" letter-spacing="3">.NET · NODE.JS · NEXT.JS · DEVOPS · CLOUD-NATIVE</text>

  <!-- Main title -->
  <text x="32" y="95" font-family="Arial Black, Arial" font-size="52" font-weight="900" fill="#f1f5f9" letter-spacing="-1">AMR SYSTEM</text>

  <!-- Subtitle -->
  <text x="32" y="125" font-family="Arial, sans-serif" font-size="14" fill="#94a3b8">ERP · MES · CRM · WMS · TMS · HCM · BI · IA — Do chão de fábrica ao relatório financeiro</text>

  <!-- Tags -->
  <g font-family="monospace" font-size="11" fill="#1E40AF">
    <rect x="32" y="148" width="56" height="22" rx="4" fill="#1e3a8a" opacity="0.6"/>
    <text x="42" y="163" fill="#93c5fd">.NET 10</text>

    <rect x="96" y="148" width="72" height="22" rx="4" fill="#1e3a8a" opacity="0.6"/>
    <text x="106" y="163" fill="#93c5fd">Node.js 22</text>

    <rect x="176" y="148" width="66" height="22" rx="4" fill="#1e3a8a" opacity="0.6"/>
    <text x="186" y="163" fill="#93c5fd">Angular 17</text>

    <rect x="250" y="148" width="66" height="22" rx="4" fill="#1e3a8a" opacity="0.6"/>
    <text x="260" y="163" fill="#93c5fd">Next.js 14</text>

    <rect x="324" y="148" width="62" height="22" rx="4" fill="#166534" opacity="0.6"/>
    <text x="334" y="163" fill="#86efac">AWS ECS</text>

    <rect x="394" y="148" width="66" height="22" rx="4" fill="#166534" opacity="0.6"/>
    <text x="404" y="163" fill="#86efac">Terraform</text>

    <rect x="468" y="148" width="60" height="22" rx="4" fill="#166534" opacity="0.6"/>
    <text x="478" y="163" fill="#86efac">Docker</text>

    <rect x="536" y="148" width="74" height="22" rx="4" fill="#7c2d12" opacity="0.6"/>
    <text x="546" y="163" fill="#fdba74">RabbitMQ</text>

    <rect x="618" y="148" width="50" height="22" rx="4" fill="#581c87" opacity="0.6"/>
    <text x="628" y="163" fill="#d8b4fe">CI/CD</text>
  </g>

  <!-- Bottom stats -->
  <text x="32" y="192" font-family="monospace" font-size="10" fill="#475569">14 módulos entregues · AMR-IA + AMR-Mobile concluídos · Sprint 21 · Jul 2026</text>

  <!-- Right side code snippet hint -->
  <rect x="620" y="30" width="260" height="100" rx="6" fill="#0f172a" opacity="0.8" stroke="#1e3a8a" stroke-width="1"/>
  <text x="635" y="52" font-family="monospace" font-size="10" fill="#64748b">// AMR Financeiro · Event-Driven</text>
  <text x="635" y="70" font-family="monospace" font-size="10" fill="#7dd3fc">public class</text>
  <text x="707" y="70" font-family="monospace" font-size="10" fill="#f1f5f9">BaixarContaPagarHandler</text>
  <text x="635" y="88" font-family="monospace" font-size="10" fill="#f1f5f9">{</text>
  <text x="647" y="105" font-family="monospace" font-size="10" fill="#94a3b8">await _mediator.Send(</text>
  <text x="659" y="120" font-family="monospace" font-size="10" fill="#94a3b8">new LancamentoEvent(conta));</text>
</svg>
